<svg xmlns="http://www.w3.org/2000/svg" width="64" height="64" fill="none" xmlns:v="https://vecta.io/nano"><g clip-path="url(#A)"><path d="M49 0H15C6.716 0 0 6.716 0 15v34c0 8.284 6.716 15 15 15h34c8.284 0 15-6.716 15-15V15c0-8.284-6.716-15-15-15z" fill="#ff385c"/><path d="M18.693 6h26.612a9.98 9.98 0 0 1 9.98 9.98v29.939a8.87 8.87 0 0 1-7.762 8.871l4.435 5.544H39.761l-3.327-5.544h-8.871l-3.327 5.544H12.04l4.435-5.544a8.87 8.87 0 0 1-7.762-8.871V15.98A9.98 9.98 0 0 1 18.693 6z" fill="#fff"/><g fill="#ff385c"><path d="M16.475 18.197c0-1.176.467-2.304 1.299-3.136s1.96-1.299 3.136-1.299h22.177c1.176 0 2.304.467 3.136 1.299s1.299 1.96 1.299 3.136v17.742H16.475V18.197zm2.219 28.829a3.33 3.33 0 0 0 3.327-3.327 3.33 3.33 0 0 0-3.327-3.327c-1.837 0-3.326 1.489-3.326 3.327s1.489 3.327 3.326 3.327zm26.613 0c1.837 0 3.326-1.489 3.326-3.327s-1.489-3.327-3.326-3.327a3.33 3.33 0 0 0-3.327 3.327c0 1.838 1.489 3.327 3.327 3.327z"/></g><path d="M26.998 46.135s2 2 5.001 2 5.001-2 5.001-2" stroke="#ff385c" stroke-width="2" stroke-linecap="round"/><path d="M35.879 38.549c-.982 0-1.473-.415-1.473-1.246s.491-1.246 1.473-1.246h1.699c.831 0 1.265-.444 1.303-1.331V21.33h-4.39c-.887 2.492-1.784 4.409-2.69 5.749-.208.321-.519.481-.935.481-.793 0-1.189-.378-1.189-1.133 0-.17.142-.491.425-.963 1.963-3.285 3.276-6.995 3.936-11.13.075-.415.227-.727.453-.935.227-.227.51-.34.85-.34.812 0 1.218.34 1.218 1.02 0 .566-.434 2.237-1.303 5.013h8.185c.944 0 1.416.378 1.416 1.133 0 .736-.472 1.105-1.416 1.105h-2.209v13.99c0 1.171-.255 2.011-.765 2.52-.491.529-1.293.765-2.407.708h-2.181zm-9.686.057c-.774 0-1.161-.444-1.161-1.331V21.33h-1.897l.85-2.237h6.145c.944 0 1.416.378 1.416 1.133 0 .736-.472 1.105-1.416 1.105h-2.775v15.944c0 .887-.387 1.331-1.161 1.331zm-5.834-12.319c-.831 0-1.246-.415-1.246-1.246 0-.264.151-.632.453-1.104 1.491-2.285 2.709-5.428 3.653-9.431.208-.868.661-1.303 1.359-1.303.812 0 1.218.312 1.218.935 0 .359-.585 2.237-1.756 5.636l-.311.878c-1.473 3.757-2.596 5.636-3.37 5.636z" fill="#fff"/></g><defs><clipPath id="A"><path fill="#fff" d="M0 0h64v64H0z"/></clipPath></defs></svg>