<svg xmlns="http://www.w3.org/2000/svg" width="64" height="64" fill="none" xmlns:v="https://vecta.io/nano"><g clip-path="url(#A)"><path d="M49 0H15C6.716 0 0 6.716 0 15v34c0 8.284 6.716 15 15 15h34c8.284 0 15-6.716 15-15V15c0-8.284-6.716-15-15-15z" fill="#ff385c"/><path d="M20.023 8.717h23.951a8.98 8.98 0 0 1 8.982 8.982v26.945c.015 1.955-.687 3.848-1.975 5.32s-3.071 2.419-5.011 2.664l3.992 4.99H38.984l-2.994-4.99h-7.984l-2.994 4.99H14.035l3.992-4.99c-1.94-.244-3.723-1.192-5.011-2.664s-1.991-3.365-1.975-5.32V17.698a8.98 8.98 0 0 1 8.982-8.982z" fill="#fff"/><g fill="#ff385c"><path d="M18.027 19.695a3.99 3.99 0 0 1 3.992-3.992h19.959a3.99 3.99 0 0 1 3.992 3.992v15.967H18.027V19.695zm1.998 25.945c1.654 0 2.994-1.34 2.994-2.994s-1.34-2.994-2.994-2.994-2.994 1.341-2.994 2.994 1.341 2.994 2.994 2.994zm23.951 0c1.654 0 2.994-1.34 2.994-2.994s-1.34-2.994-2.994-2.994-2.994 1.341-2.994 2.994 1.34 2.994 2.994 2.994z"/></g><path d="M27.498 44.838s1.8 1.8 4.501 1.8 4.501-1.8 4.501-1.8" stroke="#ff385c" stroke-width="1.8" stroke-linecap="round"/><path d="M35.491 38.01c-.884 0-1.325-.374-1.325-1.121s.442-1.121 1.325-1.121h1.529c.748 0 1.139-.399 1.172-1.198V22.513h-3.951c-.799 2.243-1.606 3.968-2.421 5.174-.187.289-.467.433-.841.433-.714 0-1.07-.34-1.07-1.02 0-.153.127-.442.382-.867 1.767-2.957 2.948-6.296 3.543-10.017.068-.374.204-.654.408-.841.204-.204.459-.306.765-.306.731 0 1.096.306 1.096.918 0 .51-.391 2.014-1.172 4.511h7.366c.85 0 1.274.34 1.274 1.019 0 .663-.425.994-1.274.994h-1.988v12.591c0 1.053-.229 1.81-.688 2.268-.442.476-1.164.688-2.166.637h-1.963zm-8.717.051c-.697 0-1.045-.399-1.045-1.198v-14.35h-1.708l.765-2.014h5.531c.85 0 1.274.34 1.274 1.019 0 .663-.425.994-1.274.994h-2.498v14.35c0 .799-.348 1.198-1.045 1.198zm-5.251-11.087c-.748 0-1.122-.374-1.122-1.121 0-.238.136-.569.408-.994 1.342-2.056 2.438-4.885 3.288-8.488.187-.782.595-1.172 1.224-1.172.731 0 1.096.28 1.096.841 0 .323-.527 2.013-1.58 5.072l-.28.79c-1.325 3.381-2.336 5.072-3.033 5.072z" fill="#fff"/></g><defs><clipPath id="A"><path fill="#fff" d="M0 0h64v64H0z"/></clipPath></defs></svg>